Coordinates
version=1
nRows=10
nColumns=40
inDegrees=yes

Units are S.I. units (second, meters, Newtons, ...)
Angles are in degrees.

endheader
time	pelvis_tilt	pelvis_list	pelvis_rotation	pelvis_tx	pelvis_ty	pelvis_tz	hip_flexion_r	hip_adduction_r	hip_rotation_r	knee_angle_r	knee_angle_r_beta	ankle_angle_r	subtalar_angle_r	mtp_angle_r	hip_flexion_l	hip_adduction_l	hip_rotation_l	knee_angle_l	knee_angle_l_beta	ankle_angle_l	subtalar_angle_l	mtp_angle_l	lumbar_extension	lumbar_bending	lumbar_rotation	arm_flex_r	arm_add_r	arm_rot_r	elbow_flex_r	pro_sup_r	wrist_flex_r	wrist_dev_r	arm_flex_l	arm_add_l	arm_rot_l	elbow_flex_l	pro_sup_l	wrist_flex_l	wrist_dev_l
     44.26342857	     -6.05045292	     -3.98935528	     12.74084313	      0.86397396	      0.92113205	      0.56707674	      9.78990287	      5.76961232	    -14.91341839	     18.30580668	     18.30580668	     17.05135603	     -8.52140658	     -0.33102489	     31.18096867	     -7.51373442	      5.55357401	     20.55530908	     20.55530908	     -1.10190950	     -1.48390095	      3.60964853	     -8.76021159	      0.33363973	      3.76731455	     61.60251623	    -18.93932841	      0.13084856	     88.97717988	     44.70117660	      0.00000000	      0.00000000	     -5.06042750	     -8.95591589	     15.86576217	     26.73458691	     44.20299048	      0.00000000	      0.00000000
     44.28685714	     -6.21005428	     -4.17356512	     12.68149778	      0.86320819	      0.92035146	      0.56516061	      9.65603223	      5.79806687	    -15.22205481	     18.26819312	     18.26819312	     17.38338834	     -7.82123107	     -0.40107637	     30.70026462	     -7.53858417	      5.41816240	     19.85382887	     19.85382887	     -1.66019965	     -1.56855743	      0.87641049	     -8.75863664	      0.45712542	      3.35260728	     62.41191794	    -17.60369575	      1.70518379	     88.22444413	     44.71425646	      0.00000000	      0.00000000	     -5.13422587	     -9.10143473	     16.24632615	     26.80616646	     44.19259887	      0.00000000	      0.00000000
     44.31028571	     -6.39066333	     -4.34513047	     12.59619114	      0.86256341	      0.91949632	      0.56293637	      9.59903633	      5.84553276	    -15.14122517	     18.32617026	     18.32617026	     17.56779620	     -7.80087681	     -0.46501264	     30.40594125	     -7.51188498	      5.43386730	     19.67674371	     19.67674371	     -0.97960671	     -1.79112396	      0.58404590	     -8.67358036	      0.52588170	      3.59182625	     62.31722453	    -17.07053799	      1.96061424	     88.35946854	     44.70394945	      0.00000000	      0.00000000	     -4.90022350	     -9.28485848	     16.24375526	     26.84426847	     44.20076754	      0.00000000	      0.00000000
     44.33371429	     -6.58955846	     -4.50003132	     12.53462410	      0.86208534	      0.91867118	      0.56028439	      9.53081471	      5.84511185	    -15.07203008	     18.36568256	     18.36568256	     17.75893064	     -7.79650504	     -0.52915428	     30.12818842	     -7.44775773	      5.50226068	     19.56785889	     19.56785889	     -0.17177913	     -1.99756893	      0.28650297	     -8.56760228	      0.52778282	      3.75414933	     62.19696075	    -16.74775415	      2.14120966	     88.40690019	     44.69705774	      0.00000000	      0.00000000	     -4.75372769	     -9.45617597	     16.23111296	     26.85071756	     44.20639523	      0.00000000	      0.00000000
     44.35714286	     -6.74873595	     -4.63918709	     12.41427414	      0.86176285	      0.91805230	      0.55732669	      9.42022456	      5.81288969	    -14.97590579	     18.44141332	     18.44141332	     17.90156872	     -7.77184603	     -0.58284627	     29.80805437	     -7.39707971	      5.51420279	     19.50351003	     19.50351003	      0.64467230	     -2.29245577	      0.00413572	     -8.48860794	      0.57173684	      3.87641916	     61.95205995	    -16.40464152	      2.35802182	     88.42465619	     44.68931878	      0.00000000	      0.00000000	     -4.56877769	     -9.65388463	     16.21606763	     26.85764170	     44.21281531	      0.00000000	      0.00000000
     44.38057143	     -6.87478928	     -4.73841617	     12.23587281	      0.86155626	      0.91770244	      0.55400029	      9.25838851	      5.71778916	    -14.83963628	     18.53259105	     18.53259105	     18.01783213	     -7.72284770	     -0.62841568	     29.47052948	     -7.32062255	      5.51708449	     19.51151042	     19.51151042	      1.41131711	     -2.66567249	     -0.24691544	     -8.47147164	      0.63370031	      3.97955755	     61.56442781	    -16.03854804	      2.62209932	     88.39814246	     44.68098280	      0.00000000	      0.00000000	     -4.37707668	     -9.87838238	     16.20111759	     26.85376544	     44.21943983	      0.00000000	      0.00000000
     44.40400000	     -6.93532489	     -4.76909797	     12.01630160	      0.86143557	      0.91769210	      0.55026823	      9.00310714	      5.53357544	    -14.63638769	     18.63532344	     18.63532344	     18.12073854	     -7.61667654	     -0.66799743	     29.12429255	     -7.17360412	      5.51712187	     19.65494524	     19.65494524	      2.04796854	     -3.22487077	     -0.41807229	     -8.55265757	      0.67674600	      4.06935317	     60.95305170	    -15.61363540	      2.99759784	     88.28125555	     44.67165995	      0.00000000	      0.00000000	     -4.18948885	    -10.13412453	     16.19496590	     26.82373227	     44.22556694	      0.00000000	      0.00000000
     44.42742857	     -7.02271144	     -4.76113767	     11.75867210	      0.86149263	      0.91789268	      0.54617126	      8.72215220	      5.27721692	    -14.46730096	     18.68761743	     18.68761743	     18.14189837	     -7.46590041	     -0.67681163	     28.83404819	     -6.96151594	      5.54120571	     19.86571256	     19.86571256	      2.58457352	     -3.89565196	     -0.49935072	     -8.57386682	      0.72697864	      4.07693235	     60.41420543	    -15.34682123	      3.33907019	     88.06579675	     44.66736206	      0.00000000	      0.00000000	     -4.03148049	    -10.34888794	     16.20075912	     26.78828080	     44.23007193	      0.00000000	      0.00000000
     44.45085714	     -7.15055231	     -4.79736676	     11.45890498	      0.86158890	      0.91822554	      0.54180560	      8.48375936	      5.03591915	    -14.31198985	     18.71533877	     18.71533877	     18.05985897	     -7.30188361	     -0.66339076	     28.59264289	     -6.79375089	      5.54764758	     20.05400597	     20.05400597	      3.11380240	     -4.42813199	     -0.59337668	     -8.53052942	      0.77961720	      4.10639913	     60.02221144	    -15.20144710	      3.55176666	     87.84849495	     44.66715527	      0.00000000	      0.00000000	     -3.86056134	    -10.53114932	     16.19499065	     26.78939146	     44.23542981	      0.00000000	      0.00000000
     44.47428571	     -7.25673924	     -4.69799811	     11.15239863	      0.86168536	      0.91879567	      0.53679492	      8.15876748	      4.53591434	    -14.44687191	     18.74005299	     18.74005299	     18.05081564	     -6.49223898	     -0.91056124	     28.33185709	     -6.24212418	      6.36123779	     20.34860281	     20.34860281	      3.46517915	     -6.57710412	      0.54716248	     -8.47823661	      0.85036699	      4.02502140	     59.80814504	    -15.11748480	      4.46313461	     86.18914775	     44.70575397	      0.00000000	      0.00000000	     -3.69122672	    -10.70182063	     16.43063356	     26.64117605	     44.22532792	      0.00000000	      0.00000000
